<?xml version="1.0" encoding="utf-8"?>
<!-- Generator: Adobe Illustrator 22.1.0, SVG Export Plug-In . SVG Version: 6.00 Build 0)  -->
<svg version="1.1" id="Layer_1" xmlns="http://www.w3.org/2000/svg" xmlns:xlink="http://www.w3.org/1999/xlink" x="0px" y="0px"
	 viewBox="0 0 150 40" style="enable-background:new 0 0 150 40;" xml:space="preserve">
<style type="text/css">
	.st0{fill:#FFFFFF;}
	.st1{fill:#D13239;}
</style>
<rect x="74.7" y="11" class="st0" width="38.8" height="21.9"/>
<path class="st0" d="M66.7,19c0,4,3.3,6.8,7.2,6.8v-0.5c-3.5-0.1-4.7-3.1-4.7-6.2c0-2.9,1.3-6.3,4.7-6.3v-0.5
	C70.1,12.2,66.7,15.1,66.7,19 M126.3,18.9v-5.2c0-0.2,0-0.6,0.2-0.7c0.2-0.1,1.1,0,1.3,0c1.8,0,2.8,1.2,2.8,3
	C130.6,18.8,128.8,18.9,126.3,18.9 M145.9,22.3c-0.3,2.4-1.6,2.6-3.7,2.7c-0.8,0-2,0-2.6-0.7c-0.4-0.5-0.4-1.4-0.4-2V19
	c1.9,0,3,0.1,3.3,2.2h0.5c0-0.8,0-1.7-0.1-2.5c0-0.9,0.1-1.8,0.1-2.7h-0.5c-0.1,1.4-0.5,2.6-3.3,2.5v-4.7c0-0.9-0.1-0.8,0.5-0.8h1.4
	c2.1,0,3.2,0.1,3.5,2.5h0.5v-3h-9.9V13c0.6,0,1.5,0,1.7,0.7c0.2,0.5,0.2,2,0.2,2.7v5.5c0,0.6,0,2.1-0.2,2.7
	c-0.3,0.7-1.1,0.7-1.7,0.7c-0.9-0.2-1.2-0.4-1.8-1.1l-4.2-4.9c2-0.2,3.6-1.3,3.6-3.4c0-2.8-2.3-3.3-4.6-3.3c-0.8,0-1.7,0.1-2.5,0.1
	c-1.1,0-2.3-0.1-3.4-0.1v0.5c0.6,0,1.5,0,1.7,0.7c0.2,0.5,0.2,2,0.2,2.7v5.6c0,0.6,0,2.1-0.2,2.7c-0.2,0.7-1.1,0.7-1.7,0.7V26
	c1,0,2-0.1,3-0.1s1.9,0.1,2.8,0.1v-0.5c-0.6,0-1.5,0-1.7-0.7c-0.2-0.5-0.2-2-0.2-2.7v-2.4c1.1,0,1,0.1,1.6,0.9l3.3,4.1l0.9,1.2
	c0.5,0,1-0.1,1.5-0.1c0.6,0,1.2,0.1,1.8,0.1l0,0H146l0.2-3.2C146.3,22.3,145.9,22.3,145.9,22.3z M114.4,12.1L114.4,12.1l-0.1,0.5
	l0,0c3.5,0,4.8,3.3,4.8,6.3s-1.1,6.3-4.6,6.3c-0.1,0-0.1,0-0.2,0v0.6l0,0c4,0,7.2-2.8,7.2-6.9C121.6,14.9,118.2,12.1,114.4,12.1
	 M49.3,18.9c-0.4,0-0.8-0.1-1.2-0.1v-5c0-1-0.1-0.9,1.4-0.9c1.9,0,2.9,1,2.9,2.9C52.4,18,51.3,18.9,49.3,18.9 M50.1,12.3
	c-1,0-1.9,0.1-2.9,0.1s-2-0.1-3-0.1v0.5c0.6,0,1.5,0,1.7,0.7c0.2,0.5,0.2,2,0.2,2.7v5.6c0,0.6,0,2.1-0.2,2.7
	c-0.2,0.7-1.1,0.7-1.7,0.7v0.5c1,0,2-0.1,2.9-0.1c1,0,2.1,0.1,3.1,0.1v-0.5c-0.7,0-1.6,0.1-1.9-0.7c-0.2-0.5-0.2-2-0.2-2.7v-2.4
	c0.1,0,1,0.1,1.3,0.1c2.4,0,5.2-0.7,5.2-3.6C54.7,13.3,52.2,12.4,50.1,12.3 M60.3,18.9c-0.4,0-0.8-0.1-1.2-0.1v-5
	c0-1-0.1-0.9,1.4-0.9c1.9,0,2.9,1,2.9,2.9C63.4,18,62.3,18.9,60.3,18.9 M61.1,12.3c-1,0-1.9,0.1-2.9,0.1s-2-0.1-3-0.1v0.5
	c0.6,0,1.5,0,1.7,0.7c0.2,0.5,0.2,2,0.2,2.7v5.6c0,0.6,0,2.1-0.2,2.7c-0.2,0.7-1.1,0.7-1.7,0.7v0.5c1,0,2-0.1,2.9-0.1
	c1,0,2.1,0.1,3.1,0.1v-0.5c-0.7,0-1.6,0.1-1.9-0.7c-0.2-0.5-0.2-2-0.2-2.7v-2.4c0.1,0,1,0.1,1.3,0.1c2.4,0,5.2-0.7,5.2-3.6
	C65.7,13.3,63.2,12.4,61.1,12.3 M11.2,20.5c1.2,0.1,1.7,0.4,1.7,1.7c0,2.1-1.3,3-3.3,3c-3.4,0-4.6-2.9-4.6-5.9
	c0-3.2,0.8-6.7,4.7-6.7c2.3,0,3.8,1.6,3.9,3.9H14l0.2-4H14l-0.4,0.9c-1.2-0.9-2.7-1.3-4.2-1.3c-4.2,0-7,3.1-7,7.2
	c0,4,2.8,6.5,6.7,6.5c1.1,0,2.1-0.2,3.1-0.8c1.2-0.7,1.4-0.8,2.8-0.8v-2.1c0-1,0.2-1.5,1.2-1.5v-0.5H11L11.2,20.5L11.2,20.5z
	 M20.5,18.9v-5.2c0-0.2,0-0.6,0.2-0.7c0.2-0.1,1.1,0,1.3,0c1.8,0,2.8,1.2,2.8,3C24.9,18.8,23,18.9,20.5,18.9 M27.8,23.9L23.6,19
	c2-0.2,3.6-1.3,3.6-3.4c0-2.8-2.3-3.3-4.6-3.3c-0.8,0-1.7,0.1-2.5,0.1c-1.1,0-2.3-0.1-3.4-0.1v0.5c0.6,0,1.5,0,1.7,0.7
	c0.2,0.5,0.2,2,0.2,2.7v5.6c0,0.6,0,2.1-0.2,2.7c-0.2,0.7-1.1,0.7-1.7,0.7v0.5c1,0,2-0.1,3-0.1s1.9,0.1,2.8,0.1v-0.5
	c-0.6,0-1.5,0-1.7-0.7c-0.2-0.5-0.2-2-0.2-2.7v-2.4c1.1,0,1,0.1,1.6,0.9l3.3,4.1l0.9,1.2c0.5,0,1-0.1,1.5-0.1c0.6,0,1.2,0.1,1.8,0.1
	v-0.5C28.7,24.9,28.4,24.7,27.8,23.9 M38.6,12.3v0.5c0.8,0,1.6,0.1,1.9,0.9c0.2,0.6,0.2,2.2,0.2,2.9V21c0,2.7-1.4,4.1-4.1,4.1
	c-2.7,0-3.7-1.5-3.7-4v-4.9c0-0.6,0-2.1,0.2-2.7c0.2-0.7,1.1-0.7,1.7-0.7v-0.5c-1,0-2,0.1-3,0.1c-0.9,0-1.9-0.1-2.8-0.1v0.5
	c0.6,0,1.5,0,1.7,0.7c0.2,0.5,0.2,2,0.2,2.7V21c0,3.6,1.7,4.9,5.3,4.9c3.8,0,5.2-1.9,5.2-5.5v-3.7c0-0.8,0-2.3,0.3-3.1
	c0.3-0.7,1-0.7,1.6-0.7v-0.5c-0.8,0-1.5,0.1-2.2,0.1C40.1,12.4,39.4,12.4,38.6,12.3"/>
<path class="st1" d="M95.7,24.7h5.2v-6.5l0,0L95.7,24.7z M109.6,19c0,2.8,1,5.3,4,5.8V13.1C110.7,13.6,109.6,16.3,109.6,19 M74.7,0
	v11.9c3.5,0.3,6.5,3.2,6.5,7s-2.8,6.8-6.5,7.1v14h38.8V26c-3.5-0.4-6.4-3.2-6.4-7c0-3.7,3-6.7,6.4-7.1V0H74.7z M90.2,23.5
	c0.9,0,1.7,0,2.4-0.1l-0.9,3.5h-1c0-0.4,0.2-0.7,0.2-1.2c0-0.2-0.7-0.2-1.3-0.2h-2.5c-1.5,0-2.7,0-3.6,0c1.4-3.6,6.9-4.7,6.9-8.2
	c0-1.3-0.8-2.1-2.5-2.1c-1.4,0-2.5,0.7-2.5,1.9c0,0.8,0.6,1.5,1.3,1.5c0.2,0,0.4,0,0.6-0.1c-0.1,0.5-0.8,1-1.7,1
	c-1.1,0-1.9-0.9-1.9-2c0-2.1,2.5-3,4.2-3c2.5,0,4.8,1,4.8,3.2c0,3.1-3.5,3.1-6.6,5.9L90.2,23.5L90.2,23.5z M106.3,25.8H103v4.1
	c0,0.9,0.8,1.2,2.4,1.2v0.8c-1.5,0-2.5-0.1-3.5-0.1s-2,0-3.5,0.1v-0.8c1.6,0,2.4-0.3,2.4-1.2v-4.1h-6.9v-0.7l8.6-10.7h0.5v10.3h3.3
	C106.3,24.7,106.3,25.8,106.3,25.8z M78.7,18.9c0-2.8-1.1-5.4-4-5.9v11.8C77.8,24.5,78.7,21.7,78.7,18.9"/>
</svg>
